<?xml version="1.0" encoding="iso-8859-1"?>
<!-- Generator: Adobe Illustrator 23.0.4, SVG Export Plug-In . SVG Version: 6.00 Build 0)  -->
<svg version="1.1" fill="#ffffff" id="Layer_1_1_" xmlns="http://www.w3.org/2000/svg" xmlns:xlink="http://www.w3.org/1999/xlink" x="0px" y="0px"
	 viewBox="0 0 64 64" style="enable-background:new 0 0 64 64;" xml:space="preserve">
<path d="M26,45v6c0,0.379,0.214,0.725,0.553,0.895L28,52.618V61c0,0.552,0.448,1,1,1h6c0.552,0,1-0.448,1-1v-8.382l1.447-0.724
	C37.786,51.725,38,51.379,38,51v-6c0-2-1.188-3.717-2.89-4.516C35.658,39.799,36,38.943,36,38c0-2.206-1.794-4-4-4s-4,1.794-4,4
	c0,0.943,0.342,1.799,0.89,2.484C27.188,41.283,26,43,26,45z M32,36c1.103,0,2,0.897,2,2s-0.897,2-2,2s-2-0.897-2-2S30.897,36,32,36
	z M28,45c0-1.654,1.346-3,3-3h2c1.654,0,3,1.346,3,3v5.382l-1.447,0.724C34.214,51.275,34,51.621,34,52v8h-4v-8
	c0-0.379-0.214-0.725-0.553-0.895L28,50.382V45z"/>
<path d="M40,45v6c0,0.379,0.214,0.725,0.553,0.895L42,52.618V61c0,0.552,0.448,1,1,1h6c0.552,0,1-0.448,1-1v-8.382l1.447-0.724
	C51.786,51.725,52,51.379,52,51v-6c0-2-1.188-3.717-2.89-4.516C49.658,39.799,50,38.943,50,38c0-2.206-1.794-4-4-4s-4,1.794-4,4
	c0,0.943,0.342,1.799,0.89,2.484C41.188,41.283,40,43,40,45z M46,36c1.103,0,2,0.897,2,2s-0.897,2-2,2s-2-0.897-2-2S44.897,36,46,36
	z M42,45c0-1.654,1.346-3,3-3h2c1.654,0,3,1.346,3,3v5.382l-1.447,0.724C48.214,51.275,48,51.621,48,52v8h-4v-8
	c0-0.379-0.214-0.725-0.553-0.895L42,50.382V45z"/>
<path d="M12,45v6c0,0.379,0.214,0.725,0.553,0.895L14,52.618V61c0,0.552,0.448,1,1,1h6c0.552,0,1-0.448,1-1v-8.382l1.447-0.724
	C23.786,51.725,24,51.379,24,51v-6c0-2-1.188-3.717-2.89-4.516C21.658,39.799,22,38.943,22,38c0-2.206-1.794-4-4-4s-4,1.794-4,4
	c0,0.943,0.342,1.799,0.89,2.484C13.188,41.283,12,43,12,45z M18,36c1.103,0,2,0.897,2,2s-0.897,2-2,2s-2-0.897-2-2S16.897,36,18,36
	z M14,45c0-1.654,1.346-3,3-3h2c1.654,0,3,1.346,3,3v5.382l-1.447,0.724C20.214,51.275,20,51.621,20,52v8h-4v-8
	c0-0.379-0.214-0.725-0.553-0.895L14,50.382V45z"/>
<path d="M58.877,26.467c-0.031-0.39-0.082-0.779-0.136-1.198c-0.554-4.047-2.065-7.987-4.378-11.402
	c-0.212-0.308-0.435-0.616-0.656-0.893c-0.287-0.391-0.585-0.775-0.894-1.151c-2.163-2.63-4.857-4.863-7.859-6.504
	c-0.298-0.165-0.596-0.319-0.906-0.479c-1.908-0.953-3.915-1.673-5.959-2.139c-1.675-0.393-3.429-0.624-5.214-0.686
	c-0.582-0.021-1.167-0.021-1.749,0v0C26.833,2.159,22.77,3.27,19.051,5.318c0,0,0,0-0.001,0l0,0
	c-3.758,2.055-7.015,5.014-9.418,8.558c-2.537,3.753-4.096,8.103-4.506,12.572C5.042,27.285,5,28.146,5,29.005
	c0,0.578,0.018,1.156,0.055,1.731c0.041,0.636,0.109,1.268,0.194,1.897c0.453,3.353,1.526,6.593,3.177,9.519
	c0,0.001,0.001,0.001,0.001,0.002s0.001,0.002,0.001,0.002l0,0c0.231,0.415,0.472,0.823,0.725,1.224l1.692-1.065
	c-0.234-0.372-0.458-0.751-0.675-1.141c-0.469-0.831-0.88-1.692-1.247-2.571c0.899,0.292,1.837,0.573,2.815,0.838l0.523-1.931
	c-1.5-0.406-2.903-0.849-4.195-1.315C7.371,33.879,7,31.456,7,29.005c0-0.793,0.039-1.588,0.116-2.368
	c0.02-0.214,0.054-0.425,0.079-0.638c2.741,0.988,5.692,1.806,8.814,2.437c0,0.002,0,0.007,0,0.009
	c0.011,1.215,0.074,2.444,0.186,3.652l1.991-0.184c-0.093-1.013-0.144-2.046-0.166-3.108c4.185,0.729,8.537,1.125,12.979,1.177
	v2.023h2v-2.021c4.087-0.047,8.103-0.385,11.978-1.004c-0.022,0.982-0.074,1.967-0.163,2.932l1.991,0.186
	c0.106-1.138,0.168-2.302,0.184-3.424c0.001-0.013,0-0.027,0.001-0.04c3.511-0.664,6.797-1.551,9.821-2.642
	c0.026,0.215,0.056,0.426,0.074,0.651C56.961,27.417,57,28.212,57,29.005c0,2.448-0.37,4.867-1.065,7.183
	c-1.3,0.467-2.698,0.913-4.198,1.323l0.526,1.93c0.979-0.267,1.913-0.551,2.816-0.845c-0.369,0.885-0.783,1.751-1.255,2.587
	c-0.21,0.382-0.44,0.765-0.669,1.127l1.69,1.069c0.251-0.397,0.501-0.814,0.726-1.223C57.814,38.18,59,33.633,59,29.005
	C59,28.146,58.958,27.285,58.877,26.467z M16.055,26.402c-3.057-0.634-5.933-1.446-8.54-2.407c0.651-3.199,1.927-6.27,3.772-8.998
	c0.045-0.066,0.095-0.128,0.14-0.194c1.855,0.848,3.862,1.582,6.018,2.169C16.635,20.002,16.171,23.162,16.055,26.402z
	 M18.001,15.053c-1.902-0.517-3.684-1.15-5.337-1.878c2.034-2.474,4.534-4.565,7.348-6.103c0.105-0.058,0.212-0.107,0.318-0.163
	c0.309,0.203,0.649,0.398,1.007,0.586C19.974,9.824,18.855,12.356,18.001,15.053z M31,27.983c-4.44-0.053-8.788-0.455-12.958-1.2
	c0.092-3.212,0.541-6.342,1.346-9.339c3.616,0.823,7.539,1.281,11.612,1.346V27.983z M31,16.791
	c-3.881-0.064-7.614-0.494-11.05-1.266c0.827-2.579,1.906-4.995,3.22-7.208C25.446,9.182,28.164,9.694,31,9.792V16.791z M32,7.815
	c-3.278,0-6.423-0.591-8.858-1.666c-0.213-0.093-0.392-0.195-0.589-0.293c2.727-1.122,5.622-1.742,8.64-1.842h0.001
	C31.463,4.005,31.727,4,32,4.005c0.262-0.006,0.536,0,0.805,0.009c1.654,0.058,3.278,0.271,4.833,0.636
	c1.299,0.296,2.576,0.709,3.816,1.217c-0.414,0.207-0.855,0.407-1.338,0.593C37.774,7.346,34.968,7.815,32,7.815z M43.114,15.729
	C39.941,16.376,36.53,16.732,33,16.791V9.775c2.508-0.085,4.887-0.486,6.997-1.181C41.27,10.802,42.313,13.193,43.114,15.729z
	 M33,27.984V18.79c3.718-0.06,7.318-0.44,10.668-1.133c0.785,2.989,1.219,6.107,1.297,9.303C41.102,27.593,37.088,27.936,33,27.984z
	 M41.888,7.88c0.659-0.303,1.251-0.631,1.779-0.979c0.108,0.057,0.215,0.111,0.324,0.171c2.805,1.533,5.315,3.623,7.341,6.104
	c-1.916,0.844-4.02,1.543-6.263,2.102C44.252,12.656,43.186,10.179,41.888,7.88z M46.952,26.603
	c-0.101-3.226-0.549-6.377-1.339-9.403c2.504-0.626,4.839-1.429,6.957-2.397c0.045,0.064,0.098,0.129,0.142,0.192
	c1.836,2.712,3.124,5.789,3.777,8.989C53.572,25.061,50.375,25.939,46.952,26.603z"/>
</svg>
