<?xml version="1.0" encoding="utf-8"?>
<!-- Generator: Adobe Illustrator 16.0.0, SVG Export Plug-In . SVG Version: 6.00 Build 0)  -->
<!DOCTYPE svg PUBLIC "-//W3C//DTD SVG 1.1//EN" "http://www.w3.org/Graphics/SVG/1.1/DTD/svg11.dtd">
<svg fill="#000000" version="1.1" id="Layer_1" xmlns="http://www.w3.org/2000/svg" xmlns:xlink="http://www.w3.org/1999/xlink" x="0px" y="0px"
	 width="512px" height="512px"  viewBox="0 0 512 512" enable-background="new 0 0 512 512" xml:space="preserve">
<g id="search">
	<g>
		<g>
			<path d="M457.52,435.02L348.74,326.23c26.149-30.73,40.47-69.511,40.47-109.98c0-93.74-76.26-170-170-170
				c-93.74,0-170,76.26-170,170s76.26,170,170,170c37.39,0,73.85-12.45,103.44-35.19l109.42,109.41
				c3.399,3.41,7.92,5.28,12.729,5.28c4.8,0,9.32-1.87,12.72-5.28C464.54,453.45,464.54,442.03,457.52,435.02z M219.21,80.25
				c74.99,0,136,61.01,136,136s-61.01,136-136,136c-74.99,0-136-61.01-136-136S144.22,80.25,219.21,80.25z"/>
		</g>
	</g>
</g>
</svg>
